{"asset":{"generator":"3D Builder","version":"2.0"},"scene":0,"scenes":[{"nodes":[0]}],"nodes":[{"mesh":0,"matrix":[0.67391431331634521,0,0,0,0,0.67391413450241089,0,0,0,3.8858225082094577E-8,0.67391419410705566,0,8.052364137256518E-6,-0.007516147568821907,-0.010859484784305096,1]}],"meshes":[{"primitives":[{"attributes":{"POSITION":0},"mode":4,"indices":1,"material":0}]}],"materials":[{"name":"Default","pbrMetallicRoughness":{"baseColorFactor":[0.50288659334182739,0.50288659334182739,0.50288659334182739,1],"metallicFactor":0,"roughnessFactor":1},"alphaMode":"OPAQUE"}],"accessors":[{"bufferView":0,"byteOffset":0,"count":24461,"componentType":5126,"type":"VEC3","min":[-0.14839950203895569,-0.0014376400504261255,-0.04706873744726181],"max":[0.14837411046028137,0.52535837888717651,0.048689264804124832]},{"bufferView":1,"byteOffset":0,"count":146754,"componentType":5125,"type":"SCALAR"}],"bufferViews":[{"buffer":0,"byteOffset":0,"byteLength":293532,"byteStride":12,"target":34962},{"buffer":0,"byteOffset":293532,"byteLength":587016,"target":34963}],"buffers":[{"byteLength":880548,"uri":"FinalBaseMesh.bin"}]}